<?xml version="1.0" standalone="no"?>
<!DOCTYPE svg PUBLIC "-//W3C//DTD SVG 20010904//EN"
 "http://www.w3.org/TR/2001/REC-SVG-20010904/DTD/svg10.dtd">
<svg version="1.0" xmlns="http://www.w3.org/2000/svg"
 width="512.000000pt" height="512.000000pt" viewBox="0 0 512.000000 512.000000"
 preserveAspectRatio="xMidYMid meet">
<metadata>
Created by potrace 1.11, written by Peter Selinger 2001-2013
</metadata>
<g transform="translate(0.000000,512.000000) scale(0.100000,-0.100000)"
fill="#000000" stroke="none">
<path d="M2255 5075 c-451 -57 -889 -240 -1254 -523 -112 -87 -340 -314 -423
-422 -247 -321 -410 -670 -489 -1048 -67 -317 -67 -717 0 -1034 220 -1051
1091 -1851 2161 -1983 157 -19 469 -20 620 -1 862 108 1594 634 1966 1411 179
376 253 728 241 1158 -8 288 -48 510 -138 767 -310 875 -1070 1511 -1984 1662
-160 26 -542 33 -700 13z m670 -89 c885 -139 1624 -748 1930 -1591 96 -265
134 -474 142 -780 5 -192 3 -240 -16 -375 -77 -543 -312 -1020 -692 -1399
-863 -863 -2230 -954 -3212 -214 -132 99 -362 329 -462 463 -250 331 -409 704
-470 1104 -176 1147 481 2261 1573 2667 185 69 344 105 627 143 78 10 476 -2
580 -18z"/>
<path d="M3014 4224 c-56 -13 -161 -34 -234 -48 -73 -13 -136 -28 -140 -33 -4
-4 -10 -29 -13 -55 l-5 -48 62 0 c69 0 97 -14 124 -63 16 -30 17 -106 20
-1088 2 -848 5 -1059 15 -1068 22 -17 262 -42 412 -43 110 0 157 5 219 21 224
59 411 211 520 421 57 110 83 196 95 317 44 431 -197 768 -564 790 -86 5 -94
4 -150 -25 -33 -16 -115 -66 -182 -111 l-123 -81 0 98 c0 235 34 802 55 926
10 54 11 85 4 98 -5 10 -11 18 -12 17 -1 -1 -48 -12 -103 -25z m546 -1149
c110 -56 202 -178 250 -330 31 -96 38 -299 16 -405 -39 -183 -141 -307 -297
-361 -110 -37 -294 -26 -438 27 l-44 17 7 456 7 456 36 31 c48 42 129 90 200
120 80 34 184 30 263 -11z"/>
<path d="M2355 3364 c-71 -18 -175 -41 -231 -51 -96 -16 -106 -16 -216 1 -150
24 -307 19 -392 -12 -187 -68 -337 -227 -391 -416 -13 -44 -16 -86 -13 -170 3
-99 7 -118 34 -176 44 -92 84 -143 148 -187 30 -21 55 -40 56 -43 0 -3 -35
-28 -77 -57 -43 -28 -106 -77 -141 -109 l-63 -59 11 -52 c28 -126 145 -220
323 -258 15 -3 27 -9 27 -14 0 -5 -39 -40 -87 -79 -49 -39 -121 -104 -162
-145 l-74 -75 5 -70 c17 -238 227 -384 533 -369 245 12 474 113 628 276 90 96
131 181 136 283 3 69 0 85 -23 133 -19 37 -42 65 -76 90 -100 73 -191 98 -530
145 -329 45 -401 64 -434 112 -38 53 -4 126 81 179 32 20 39 21 103 10 225
-37 451 31 599 179 191 190 223 457 81 668 -21 31 -35 61 -31 65 4 4 68 14
141 22 73 8 136 18 140 22 11 12 39 177 31 184 -3 3 -64 -9 -136 -27z m-542
-220 c98 -34 199 -157 226 -275 18 -76 13 -200 -10 -274 -27 -88 -97 -163
-179 -191 -131 -44 -284 -11 -376 81 -91 91 -130 206 -121 351 12 171 90 282
227 321 56 16 168 10 233 -13z m-72 -1424 c269 -41 388 -78 434 -132 31 -37
34 -113 6 -175 -64 -139 -296 -245 -506 -230 -201 14 -314 113 -303 264 6 80
40 146 118 226 76 78 66 76 251 47z"/>
</g>
</svg>
